<svg width="600" height="496" viewBox="0 0 600 496" fill="none" xmlns="http://www.w3.org/2000/svg">
<path d="M33.9692 441.807C53.9077 441.807 64.6154 430.026 64.6154 409.04C64.6154 393.024 59.2615 382.716 42.2769 367.805C28.9846 356.207 24.7384 349.396 24.7384 340.008C24.7384 331.171 28.4308 327.674 34.8923 327.674C41.3538 327.674 45.0461 331.171 45.0461 340.376V347.003H64.2461V341.664C64.2461 321.047 54.4615 309.265 34.7077 309.265C14.9538 309.265 4.43075 321.047 4.43075 341.296C4.43075 356.023 9.96922 366.516 26.9538 381.427C40.2461 393.024 44.3077 399.836 44.3077 410.513C44.3077 420.085 40.2461 423.399 33.7846 423.399C27.3231 423.399 23.2615 420.085 23.2615 410.881V402.045H4.06152V409.408C4.06152 430.026 14.0308 441.807 33.9692 441.807ZM105.613 441.807C125.551 441.807 136.444 430.026 136.444 409.408V341.664C136.444 321.047 125.551 309.265 105.613 309.265C85.6745 309.265 74.7821 321.047 74.7821 341.664V409.408C74.7821 430.026 85.6745 441.807 105.613 441.807ZM105.613 423.399C99.1514 423.399 95.0898 419.901 95.0898 410.697V340.376C95.0898 331.171 99.1514 327.674 105.613 327.674C112.074 327.674 116.136 331.171 116.136 340.376V410.697C116.136 419.901 112.074 423.399 105.613 423.399ZM150.177 439.966H168.27V345.898H168.639L193.008 439.966H213.87V311.106H195.777V388.238H195.408L175.654 311.106H150.177V439.966ZM228.964 439.966H284.348V421.558H249.271V381.979H277.148V363.571H249.271V329.515H284.348V311.106H228.964V439.966ZM311.908 439.966H332.215V329.515H353.446V311.106H290.677V329.515H311.908V439.966Z" fill="#7F8BF2"/>
<path d="M7.56921 301.902H25.2923V204.336H25.6615L40.4308 301.902H57.4154L72.1846 204.336H72.5538V301.902H91.7538V173.041H62.7692L49.8461 265.268H49.4769L36.5538 173.041H7.56921V301.902ZM136.447 303.742C156.385 303.742 166.724 291.961 166.724 271.343V173.041H147.154V272.816C147.154 282.02 143.277 285.334 136.816 285.334C130.354 285.334 126.477 282.02 126.477 272.816V173.041H106.17V271.343C106.17 291.961 116.508 303.742 136.447 303.742ZM177.126 301.902H236.572V283.493H198.91L236.572 191.082V173.041H178.972V191.45H214.787L177.126 283.861V301.902ZM266.719 301.902H287.027V247.044L311.581 173.041H291.827L277.981 220.351H277.612L263.766 173.041H242.166L266.719 247.044V301.902ZM346.1 303.742C365.669 303.742 376.008 291.961 376.008 272.08V253.855H356.808V273.552C356.808 282.02 352.746 285.334 346.654 285.334C340.562 285.334 336.5 282.02 336.5 273.552V201.574C336.5 193.106 340.562 189.609 346.654 189.609C352.746 189.609 356.808 193.106 356.808 201.574V216.485H376.008V202.863C376.008 182.982 365.669 171.2 346.1 171.2C326.531 171.2 316.193 182.982 316.193 202.863V272.08C316.193 291.961 326.531 303.742 346.1 303.742ZM384.096 301.902H443.542V283.493H405.881L443.542 191.082V173.041H385.942V191.45H421.758L384.096 283.861V301.902ZM455.046 301.902H473.138V207.833H473.507L497.876 301.902H518.738V173.041H500.646V250.173H500.276L480.522 173.041H455.046V301.902ZM552.478 301.902H572.786V247.044L597.34 173.041H577.586L563.74 220.351H563.37L549.524 173.041H527.924L552.478 247.044V301.902Z" fill="#7F8BF2"/>
<path d="M429.661 167.588C482.507 175.106 537.954 200.919 501.509 250.542C390.353 364.57 209.688 400.659 150.856 371.337C97.7501 346.777 103.998 301.166 161.529 254.05C105.188 309.17 114.931 347.279 155.802 361.815C216.718 385.122 347.14 353.043 417.166 304.925C434.14 294.84 447.545 284.835 486.151 250.542C416.093 299.054 374.49 318.547 297.417 343.77C369.672 314.806 409.665 297.16 473.394 245.028C421.229 276.399 392.309 291.011 341.151 313.196C377.237 295.374 397.246 284.149 431.743 257.559C402.149 273.17 385.501 280.962 355.73 293.647C370.901 285.669 379.071 280.702 391.914 269.337C289.868 316.452 211.51 325.474 187.562 297.406C177.409 273.096 176.367 233.249 174.806 197.911C174.806 126.449 223.704 98.2441 293.54 97.8874C299.614 97.7298 305.861 97.8988 312.257 98.4185C305.871 98.0367 299.625 97.8563 293.54 97.8874C223.449 99.7062 176.591 145.018 197.193 196.91C207.085 214.704 222.884 224.621 250.3 223.976C229.353 226.373 218.11 228.173 199.015 232.247C232.957 233.968 255.066 233.32 310.172 223.976C271.944 232.216 250.215 236.417 209.948 241.77C271.944 242.096 303.096 236.971 353.127 219.716C292.061 243.482 258.458 250.442 205.783 250.792C252.628 260.044 333.341 247.534 382.543 217.46C436.949 186.384 405.19 115.46 331.259 132.001C345.317 125.806 352.977 121.951 366.142 114.207C341.804 119.459 327.844 124.998 302.623 137.514C323.898 125.91 335.856 119.618 357.292 109.195C322.015 117.344 302.237 126.531 266.959 146.035C294.101 128.466 309.646 119.356 339.068 106.939C291.048 121.203 263.352 134.748 212.813 167.087C251.791 137.523 273.936 121.108 327.094 99.4208C335.424 95.4111 373.691 89.8975 394.257 111.952C421.331 160.821 421.331 173.101 432.785 223.976C434.267 201.956 433.279 189.611 429.661 167.588Z" fill="white"/>
<path d="M429.661 167.588C482.507 175.106 537.954 200.919 501.509 250.542C390.353 364.57 209.688 400.659 150.856 371.337C97.7501 346.777 103.998 301.166 161.529 254.05C105.188 309.17 114.931 347.279 155.802 361.815C216.718 385.122 347.14 353.043 417.166 304.925C434.14 294.84 447.545 284.835 486.151 250.542C416.093 299.054 374.49 318.547 297.417 343.77C369.672 314.806 409.665 297.16 473.394 245.028C421.229 276.399 392.309 291.011 341.151 313.196C377.237 295.374 397.246 284.149 431.743 257.559C402.149 273.17 385.501 280.962 355.73 293.647C370.901 285.669 379.071 280.702 391.914 269.337C289.868 316.452 211.51 325.474 187.562 297.406C177.409 273.096 176.367 233.249 174.806 197.911C174.806 120.222 232.597 93.6567 312.257 98.4185C232.076 91.9026 174.806 140.522 197.193 196.91C207.085 214.704 222.884 224.621 250.3 223.976C229.353 226.373 218.11 228.173 199.015 232.247C232.957 233.968 255.066 233.32 310.172 223.976C271.944 232.216 250.215 236.417 209.948 241.77C271.944 242.096 303.096 236.971 353.127 219.717C292.061 243.482 258.458 250.442 205.783 250.792C252.628 260.044 333.341 247.534 382.543 217.46C436.949 186.384 405.19 115.46 331.259 132.001C345.317 125.806 352.977 121.951 366.142 114.207C341.804 119.459 327.844 124.998 302.623 137.514C323.898 125.91 335.856 119.618 357.292 109.195C322.015 117.344 302.237 126.531 266.959 146.035C294.101 128.466 309.646 119.356 339.068 106.939C291.048 121.203 263.352 134.748 212.813 167.087C251.791 137.523 273.936 121.108 327.094 99.4208C335.424 95.4111 373.691 89.8975 394.257 111.952C421.331 160.821 421.331 173.101 432.785 223.976C434.267 201.956 433.279 189.611 429.661 167.588Z" stroke="white" stroke-linejoin="round"/>
<path d="M3.50769 165.678H62.9538V147.269H25.2923L62.9538 54.8576V36.8171H5.35384V55.2257H41.1692L3.50769 147.637V165.678ZM74.4563 165.678H129.841V147.269H94.764V107.69H122.641V89.2817H94.764V55.2257H129.841V36.8171H74.4563V165.678ZM168.284 167.518C188.223 167.518 198.93 155.737 198.93 134.751C198.93 118.736 193.577 108.427 176.592 93.5157C163.299 81.9183 159.053 75.1071 159.053 65.7187C159.053 56.8825 162.746 53.3849 169.207 53.3849C175.669 53.3849 179.361 56.8825 179.361 66.0868V72.714H198.561V67.3754C198.561 46.7578 188.777 34.9762 169.023 34.9762C149.269 34.9762 138.746 46.7578 138.746 67.0073C138.746 81.7342 144.284 92.2271 161.269 107.138C174.561 118.736 178.623 125.547 178.623 136.224C178.623 145.796 174.561 149.11 168.1 149.11C161.638 149.11 157.576 145.796 157.576 136.592V127.756H138.376V135.119C138.376 155.737 148.346 167.518 168.284 167.518ZM210.574 165.678H230.882V113.213H240.482C260.79 113.213 270.759 101.984 270.759 81.366V68.664C270.759 48.0464 260.79 36.8171 240.482 36.8171H210.574V165.678ZM230.882 94.8043V55.2257H240.482C246.943 55.2257 250.451 58.1711 250.451 67.3754V82.6546C250.451 91.8589 246.943 94.8043 240.482 94.8043H230.882ZM300.065 28.165H315.388L335.142 6.99512H312.988L300.065 28.165ZM311.142 167.518C331.08 167.518 341.972 155.737 341.972 135.119V67.3754C341.972 46.7578 331.08 34.9762 311.142 34.9762C291.203 34.9762 280.311 46.7578 280.311 67.3754V135.119C280.311 155.737 291.203 167.518 311.142 167.518ZM311.142 149.11C304.68 149.11 300.618 145.612 300.618 136.408V66.0868C300.618 56.8825 304.68 53.3849 311.142 53.3849C317.603 53.3849 321.665 56.8825 321.665 66.0868V136.408C321.665 145.612 317.603 149.11 311.142 149.11ZM379.706 147.269V114.502L401.675 91.1226V69.0322L379.706 92.4112V36.8171H359.398V114.133L349.983 124.258V146.348L359.398 136.224V165.678H413.121V147.269H379.706Z" fill="#7F8BF2"/>
</svg>
