<svg width="2699" height="595" viewBox="0 0 2699 595" fill="none" xmlns="http://www.w3.org/2000/svg">
<g clip-path="url(#clip0_53_5)">
<path d="M610.403 158.373C711.903 173.373 818.403 224.873 748.403 323.873C534.903 551.373 187.903 623.374 74.9026 564.874C-27.0973 515.874 -15.0974 424.873 95.4026 330.873C-12.8119 440.841 5.90259 516.874 84.4026 545.874C201.403 592.374 451.903 528.373 586.403 432.373C619.006 412.253 644.753 392.292 718.903 323.873C584.344 420.66 504.437 459.55 356.403 509.873C495.183 452.088 571.996 416.883 694.403 312.873C594.208 375.463 538.66 404.616 440.403 448.873C509.711 413.32 548.143 390.921 614.403 337.873C557.561 369.019 525.586 384.567 468.403 409.873C497.545 393.956 513.232 384.049 537.903 361.373C341.903 455.373 191.403 473.373 145.403 417.373C125.903 368.873 123.903 289.373 120.903 218.873C120.903 76.2981 214.821 20.0257 348.955 19.314C360.621 18.9996 372.622 19.3367 384.903 20.3734C372.638 19.6119 360.644 19.252 348.955 19.314C214.332 22.9427 124.332 113.345 163.903 216.873C182.903 252.373 213.246 272.16 265.903 270.873C225.672 275.654 204.077 279.246 167.403 287.373C232.593 290.807 275.061 289.518 380.903 270.873C307.477 287.314 265.742 295.694 188.403 306.373C307.475 307.023 367.308 296.8 463.403 262.373C346.115 309.788 281.574 323.676 180.403 324.373C270.375 342.833 425.403 317.873 519.903 257.873C624.403 195.873 563.403 54.3735 421.403 87.3735C448.403 75.0148 463.117 67.3232 488.403 51.8735C441.656 62.3512 414.841 73.4031 366.403 98.3735C407.266 75.2218 430.232 62.6693 471.403 41.8735C403.648 58.1318 365.662 76.4613 297.903 115.373C350.033 80.3214 379.89 62.1463 436.403 37.3735C344.169 65.8312 290.975 92.8545 193.903 157.373C268.77 98.3902 311.301 65.6417 413.403 22.3735C429.403 14.3734 502.903 3.37338 542.403 47.3735C594.403 144.873 594.403 169.373 616.403 270.873C619.248 226.942 617.351 202.31 610.403 158.373Z" fill="white"/>
<path d="M610.403 158.373C711.903 173.373 818.403 224.873 748.403 323.873C534.903 551.373 187.903 623.374 74.9026 564.874C-27.0973 515.874 -15.0974 424.873 95.4026 330.873C-12.8119 440.841 5.90259 516.874 84.4026 545.874C201.403 592.374 451.903 528.373 586.403 432.373C619.006 412.253 644.753 392.292 718.903 323.873C584.344 420.66 504.437 459.55 356.403 509.873C495.183 452.088 571.996 416.883 694.403 312.873C594.208 375.463 538.66 404.616 440.403 448.873C509.711 413.32 548.143 390.921 614.403 337.873C557.561 369.019 525.586 384.567 468.403 409.873C497.545 393.956 513.232 384.049 537.903 361.373C341.903 455.373 191.403 473.373 145.403 417.373C125.903 368.873 123.903 289.373 120.903 218.873C120.903 63.8735 231.903 10.8735 384.903 20.3734C230.903 7.37348 120.903 104.373 163.903 216.873C182.903 252.373 213.246 272.16 265.903 270.873C225.672 275.654 204.077 279.246 167.403 287.373C232.593 290.807 275.061 289.518 380.903 270.873C307.477 287.314 265.742 295.694 188.403 306.373C307.475 307.023 367.308 296.8 463.403 262.373C346.115 309.788 281.574 323.676 180.403 324.373C270.375 342.833 425.403 317.873 519.903 257.873C624.403 195.873 563.403 54.3735 421.403 87.3735C448.403 75.0148 463.118 67.3232 488.403 51.8735C441.656 62.3512 414.841 73.4031 366.403 98.3735C407.266 75.2218 430.232 62.6693 471.403 41.8735C403.648 58.1318 365.662 76.4613 297.903 115.373C350.033 80.3214 379.89 62.1463 436.403 37.3735C344.169 65.8312 290.975 92.8545 193.903 157.373C268.769 98.3902 311.301 65.6417 413.403 22.3735C429.403 14.3734 502.903 3.37338 542.403 47.3735C594.403 144.873 594.403 169.373 616.403 270.873C619.248 226.942 617.351 202.31 610.403 158.373Z" stroke="white" stroke-width="4" stroke-linejoin="round"/>
<path d="M967.599 509.286C944.609 509.286 921.201 506.36 897.375 500.508C873.549 495.074 853.694 487.759 837.81 478.563L840.945 393.291H847.215L866.652 434.046C872.504 445.75 878.774 456.2 885.462 465.396C892.15 474.174 901.346 481.071 913.05 486.087C921.41 490.267 929.352 493.193 936.876 494.865C944.818 496.119 953.596 496.746 963.21 496.746C988.708 496.746 1008.77 489.849 1023.4 476.055C1038.45 462.261 1045.97 444.496 1045.97 422.76C1045.97 402.278 1040.96 386.394 1030.93 375.108C1020.89 363.404 1004.8 352.118 982.647 341.25L956.94 329.964C920.992 314.08 892.777 295.897 872.295 275.415C852.231 254.515 842.199 226.927 842.199 192.651C842.199 167.989 848.469 146.671 861.009 128.697C873.967 110.723 891.732 96.929 914.304 87.315C937.294 77.701 964.046 72.894 994.56 72.894C1016.71 72.894 1037.61 75.82 1057.26 81.672C1077.32 87.524 1094.67 95.466 1109.3 105.498L1105.54 180.738H1099.27L1073.56 133.713C1066.46 119.083 1059.35 108.842 1052.24 102.99C1045.14 96.72 1036.99 92.331 1027.79 89.823C1022.36 88.151 1017.34 87.106 1012.74 86.688C1008.15 85.852 1002.29 85.434 995.187 85.434C973.869 85.434 955.895 91.704 941.265 104.244C926.635 116.366 919.32 132.877 919.32 153.777C919.32 175.095 924.963 192.233 936.249 205.191C947.535 217.731 964.046 229.017 985.782 239.049L1014.62 251.589C1054.75 269.145 1083.59 287.955 1101.15 308.019C1118.71 327.665 1127.48 353.163 1127.48 384.513C1127.48 421.297 1113.48 451.393 1085.48 474.801C1057.89 497.791 1018.6 509.286 967.599 509.286ZM1356.02 509.286C1330.52 509.286 1305.86 504.688 1282.03 495.492C1258.62 486.296 1237.51 472.711 1218.7 454.737C1200.31 436.345 1185.68 413.564 1174.81 386.394C1163.94 359.224 1158.51 327.456 1158.51 291.09C1158.51 255.142 1163.94 223.583 1174.81 196.413C1185.68 169.243 1200.52 146.671 1219.33 128.697C1238.14 110.305 1259.25 96.511 1282.66 87.315C1306.48 77.701 1330.94 72.894 1356.02 72.894C1381.51 72.894 1405.97 77.492 1429.37 86.688C1453.2 95.466 1474.31 109.051 1492.7 127.443C1511.51 145.417 1526.35 168.198 1537.22 195.786C1548.09 222.956 1553.52 254.724 1553.52 291.09C1553.52 326.62 1548.09 358.179 1537.22 385.767C1526.35 412.937 1511.51 435.718 1492.7 454.11C1474.31 472.084 1453.2 485.878 1429.37 495.492C1405.97 504.688 1381.51 509.286 1356.02 509.286ZM1356.02 496.119C1379.01 496.119 1397.61 490.058 1411.82 477.936C1426.03 465.396 1436.27 444.287 1442.54 414.609C1449.23 384.513 1452.57 343.34 1452.57 291.09C1452.57 238.422 1449.23 197.249 1442.54 167.571C1436.27 137.475 1426.03 116.366 1411.82 104.244C1397.61 91.704 1379.01 85.434 1356.02 85.434C1333.44 85.434 1315.05 91.704 1300.84 104.244C1286.63 116.366 1276.18 137.475 1269.49 167.571C1263.22 197.249 1260.08 238.422 1260.08 291.09C1260.08 343.34 1263.22 384.513 1269.49 414.609C1276.18 444.287 1286.63 465.396 1300.84 477.936C1315.05 490.058 1333.44 496.119 1356.02 496.119ZM1575.71 498V491.73L1596.4 485.46C1603.93 483.37 1609.36 479.399 1612.7 473.547C1616.05 467.277 1617.72 459.962 1617.72 451.602V150.015C1613.12 139.983 1609.36 132.459 1606.43 127.443C1603.93 122.427 1601 118.247 1597.66 114.903C1594.31 111.141 1589.71 106.543 1583.86 101.109L1573.2 90.45V84.18H1684.18L1892.35 368.211V131.832C1892.35 123.472 1890.88 115.948 1887.96 109.26C1885.45 102.572 1880.01 98.183 1871.65 96.093L1850.96 90.45V84.18H1940.62V90.45L1923.7 96.093C1916.17 98.601 1911.57 102.99 1909.9 109.26C1908.23 115.53 1907.39 122.845 1907.39 131.205V499.881H1872.28L1632.77 170.706V451.602C1632.77 459.962 1634.02 467.068 1636.53 472.92C1639.04 478.772 1644.26 482.952 1652.2 485.46L1671.01 491.73V498H1575.71ZM1971.07 498V491.73L1985.49 486.087C1992.6 483.161 1997.4 479.399 1999.91 474.801C2002.84 469.785 2004.3 463.097 2004.3 454.737V127.443C2004.3 119.083 2003.05 112.604 2000.54 108.006C1998.45 102.99 1993.43 99.019 1985.49 96.093L1971.07 90.45V84.18H2271.4L2275.16 180.738H2268.89L2241.93 121.8C2238.17 114.276 2234.2 108.215 2230.02 103.617C2225.84 99.019 2219.57 96.72 2211.21 96.72H2098.35V277.923H2165.44C2173.8 277.923 2180.07 275.833 2184.25 271.653C2188.85 267.055 2192.82 260.994 2196.16 253.47L2208.7 228.39H2214.97V341.25H2208.7L2196.16 314.916C2192.4 307.392 2188.43 301.54 2184.25 297.36C2180.07 292.762 2173.8 290.463 2165.44 290.463H2098.35V485.46H2225C2233.36 485.46 2239.84 483.37 2244.44 479.19C2249.04 474.592 2252.8 468.322 2255.73 460.38L2281.43 401.442H2287.7L2283.94 498H1971.07ZM2402.88 498V491.73L2428.58 485.46C2445.72 481.698 2454.29 471.248 2454.29 454.11V96.72H2400.99C2385.53 96.72 2374.45 100.9 2367.76 109.26C2361.08 117.202 2353.97 128.279 2346.45 142.491L2323.87 186.381H2317.6L2320.74 84.18H2682.52L2685.03 186.381H2678.76L2656.18 142.491C2649.08 128.279 2642.18 117.202 2635.49 109.26C2628.8 100.9 2617.73 96.72 2602.26 96.72H2548.97V454.11C2548.97 471.248 2557.54 481.698 2574.67 485.46L2600.38 491.73V498H2402.88Z" fill="white"/>
</g>
<defs>
<clipPath id="clip0_53_5">
<rect width="2699" height="595" fill="white"/>
</clipPath>
</defs>
</svg>
