<svg width="776" height="591" viewBox="0 0 776 591" fill="none" xmlns="http://www.w3.org/2000/svg">
<path d="M610.403 158.373C711.903 173.373 818.403 224.873 748.403 323.873C534.903 551.373 187.903 623.374 74.9026 564.874C-27.0973 515.874 -15.0974 424.873 95.4026 330.873C-12.8119 440.841 5.90259 516.874 84.4026 545.874C201.403 592.374 451.903 528.373 586.403 432.373C619.006 412.253 644.753 392.292 718.903 323.873C584.344 420.66 504.437 459.55 356.403 509.873C495.183 452.088 571.996 416.883 694.403 312.873C594.208 375.463 538.66 404.616 440.403 448.873C509.711 413.32 548.143 390.921 614.403 337.873C557.561 369.019 525.586 384.567 468.403 409.873C497.545 393.956 513.232 384.049 537.903 361.373C341.903 455.373 191.403 473.373 145.403 417.373C125.903 368.873 123.903 289.373 120.903 218.873C120.903 76.2981 214.821 20.0257 348.955 19.314C360.621 18.9996 372.622 19.3367 384.903 20.3734C372.638 19.6119 360.644 19.252 348.955 19.314C214.332 22.9427 124.332 113.345 163.903 216.873C182.903 252.373 213.246 272.16 265.903 270.873C225.672 275.654 204.077 279.246 167.403 287.373C232.593 290.807 275.061 289.518 380.903 270.873C307.477 287.314 265.742 295.694 188.403 306.373C307.475 307.023 367.308 296.8 463.403 262.373C346.115 309.788 281.574 323.676 180.403 324.373C270.375 342.833 425.403 317.873 519.903 257.873C624.403 195.873 563.403 54.3735 421.403 87.3735C448.403 75.0148 463.117 67.3232 488.403 51.8735C441.656 62.3512 414.841 73.4031 366.403 98.3735C407.266 75.2218 430.232 62.6693 471.403 41.8735C403.648 58.1318 365.662 76.4613 297.903 115.373C350.033 80.3214 379.89 62.1463 436.403 37.3735C344.169 65.8312 290.975 92.8545 193.903 157.373C268.77 98.3902 311.301 65.6417 413.403 22.3735C429.403 14.3734 502.903 3.37338 542.403 47.3735C594.403 144.873 594.403 169.373 616.403 270.873C619.248 226.942 617.351 202.31 610.403 158.373Z" fill="white"/>
<path d="M610.403 158.373C711.903 173.373 818.403 224.873 748.403 323.873C534.903 551.373 187.903 623.374 74.9026 564.874C-27.0973 515.874 -15.0974 424.873 95.4026 330.873C-12.8119 440.841 5.90259 516.874 84.4026 545.874C201.403 592.374 451.903 528.373 586.403 432.373C619.006 412.253 644.753 392.292 718.903 323.873C584.344 420.66 504.437 459.55 356.403 509.873C495.183 452.088 571.996 416.883 694.403 312.873C594.208 375.463 538.66 404.616 440.403 448.873C509.711 413.32 548.143 390.921 614.403 337.873C557.561 369.019 525.586 384.567 468.403 409.873C497.545 393.956 513.232 384.049 537.903 361.373C341.903 455.373 191.403 473.373 145.403 417.373C125.903 368.873 123.903 289.373 120.903 218.873C120.903 63.8735 231.903 10.8735 384.903 20.3734C230.903 7.37348 120.903 104.373 163.903 216.873C182.903 252.373 213.246 272.16 265.903 270.873C225.672 275.654 204.077 279.246 167.403 287.373C232.593 290.807 275.061 289.518 380.903 270.873C307.477 287.314 265.742 295.694 188.403 306.373C307.475 307.023 367.308 296.8 463.403 262.373C346.115 309.788 281.574 323.676 180.403 324.373C270.375 342.833 425.403 317.873 519.903 257.873C624.403 195.873 563.403 54.3735 421.403 87.3735C448.403 75.0148 463.118 67.3232 488.403 51.8735C441.656 62.3512 414.841 73.4031 366.403 98.3735C407.266 75.2218 430.232 62.6693 471.403 41.8735C403.648 58.1318 365.662 76.4613 297.903 115.373C350.033 80.3214 379.89 62.1463 436.403 37.3735C344.169 65.8312 290.975 92.8545 193.903 157.373C268.769 98.3902 311.301 65.6417 413.403 22.3735C429.403 14.3734 502.903 3.37338 542.403 47.3735C594.403 144.873 594.403 169.373 616.403 270.873C619.248 226.942 617.351 202.31 610.403 158.373Z" stroke="white" stroke-width="4" stroke-linejoin="round"/>
</svg>
